HIERARCHY
ROOT Hips
{
	OFFSET 0.000000 0.000000 0.000000
	CHANNELS 6 Xposition Yposition Zposition Zrotation Yrotation Xrotation 
	JOINT Spine1
	{
		OFFSET -0.013727 5.003763 -0.053727
		CHANNELS 3 Zrotation Yrotation Xrotation
		JOINT Spine2
		{
			OFFSET -0.000000 7.125302 -0.029825
			CHANNELS 3 Zrotation Yrotation Xrotation
			JOINT Chest
			{
				OFFSET -0.000001 7.550063 -0.815971
				CHANNELS 3 Zrotation Yrotation Xrotation
				JOINT Neck1
				{
					OFFSET -0.181676 26.311296 -0.553348
					CHANNELS 3 Zrotation Yrotation Xrotation
					JOINT Neck2
					{
						OFFSET -0.000003 7.709397 2.302585
						CHANNELS 3 Zrotation Yrotation Xrotation
						JOINT Head
						{
							OFFSET -0.000005 6.128912 1.953709
							CHANNELS 3 Zrotation Yrotation Xrotation
							JOINT HeadEnd
							{
								OFFSET 0.003598 16.065401 -1.835380
								CHANNELS 3 Zrotation Yrotation Xrotation
								End Site
								{
									OFFSET 0.000000 0.000000 0.000000
								}
							}
							JOINT Jaw
							{
								OFFSET 0.002637 0.475592 3.094940
								CHANNELS 3 Zrotation Yrotation Xrotation
								End Site
								{
									OFFSET 0.000000 0.000000 0.000000
								}
							}
							JOINT LeftEye
							{
								OFFSET 3.206381 5.380208 7.586883
								CHANNELS 3 Zrotation Yrotation Xrotation
								End Site
								{
									OFFSET 0.000000 0.000000 0.000000
								}
							}
							JOINT RightEye
							{
								OFFSET -3.222440 5.361868 7.558232
								CHANNELS 3 Zrotation Yrotation Xrotation
								End Site
								{
									OFFSET 0.000000 0.000000 0.000000
								}
							}
						}
					}
				}
				JOINT LeftShoulder
				{
					OFFSET 1.621652 23.237164 5.113413
					CHANNELS 3 Zrotation Yrotation Xrotation
					JOINT LeftArm
					{
						OFFSET 14.919845 0.000000 -5.502325
						CHANNELS 3 Zrotation Yrotation Xrotation
						JOINT LeftForeArm
						{
							OFFSET 28.739309 0.000004 -0.002589
							CHANNELS 3 Zrotation Yrotation Xrotation
							JOINT LeftHand
							{
								OFFSET 27.093983 -0.000004 0.002609
								CHANNELS 3 Zrotation Yrotation Xrotation
								JOINT LeftHandThumb1
								{
									OFFSET 2.276481 -1.392045 3.191413
									CHANNELS 3 Zrotation Yrotation Xrotation
									JOINT LeftHandThumb2
									{
										OFFSET 4.012843 -1.828125 1.641655
										CHANNELS 3 Zrotation Yrotation Xrotation
										JOINT LeftHandThumb3
										{
											OFFSET 2.798516 0.000001 -0.000003
											CHANNELS 3 Zrotation Yrotation Xrotation
											JOINT LeftHandThumbEnd
											{
												OFFSET 3.180792 -0.000001 0.000003
												CHANNELS 3 Zrotation Yrotation Xrotation
												End Site
												{
													OFFSET 0.000000 0.000000 0.000000
												}
											}
										}
									}
								}
								JOINT LeftHandIndex1
								{
									OFFSET 3.247555 -0.531998 2.296169
									CHANNELS 3 Zrotation Yrotation Xrotation
									JOINT LeftHandIndex2
									{
										OFFSET 6.364580 0.012062 0.178599
										CHANNELS 3 Zrotation Yrotation Xrotation
										JOINT LeftHandIndex3
										{
											OFFSET 3.662368 0.000001 0.000000
											CHANNELS 3 Zrotation Yrotation Xrotation
											JOINT LeftHandIndex4
											{
												OFFSET 2.329242 0.000002 0.000004
												CHANNELS 3 Zrotation Yrotation Xrotation
												JOINT LeftHandIndexEnd
												{
													OFFSET 2.759619 -0.180538 -0.113024
													CHANNELS 3 Zrotation Yrotation Xrotation
													End Site
													{
														OFFSET 0.000000 0.000000 0.000000
													}
												}
											}
										}
									}
								}
								JOINT LeftHandMiddle1
								{
									OFFSET 3.163499 0.240982 1.000332
									CHANNELS 3 Zrotation Yrotation Xrotation
									JOINT LeftHandMiddle2
									{
										OFFSET 6.190778 -0.259276 -1.002548
										CHANNELS 3 Zrotation Yrotation Xrotation
										JOINT LeftHandMiddle3
										{
											OFFSET 4.356523 -0.000006 0.000000
											CHANNELS 3 Zrotation Yrotation Xrotation
											JOINT LeftHandMiddle4
											{
												OFFSET 2.996875 -0.000007 0.000001
												CHANNELS 3 Zrotation Yrotation Xrotation
												JOINT LeftHandMiddleEnd
												{
													OFFSET 2.304294 -0.294572 -0.031740
													CHANNELS 3 Zrotation Yrotation Xrotation
													End Site
													{
														OFFSET 0.000000 0.000000 0.000000
													}
												}
											}
										}
									}
								}
								JOINT LeftHandRing1
								{
									OFFSET 2.882641 -0.053651 -0.322543
									CHANNELS 3 Zrotation Yrotation Xrotation
									JOINT LeftHandRing2
									{
										OFFSET 5.854543 -0.486203 -1.373841
										CHANNELS 3 Zrotation Yrotation Xrotation
										JOINT LeftHandRing3
										{
											OFFSET 4.350580 0.000001 0.000003
											CHANNELS 3 Zrotation Yrotation Xrotation
											JOINT LeftHandRing4
											{
												OFFSET 2.651324 0.000008 0.000003
												CHANNELS 3 Zrotation Yrotation Xrotation
												JOINT LeftHandRingEnd
												{
													OFFSET 1.936111 0.077685 -0.000070
													CHANNELS 3 Zrotation Yrotation Xrotation
													End Site
													{
														OFFSET 0.000000 0.000000 0.000000
													}
												}
											}
										}
									}
								}
								JOINT LeftHandPinky1
								{
									OFFSET 2.865500 -0.310004 -1.600378
									CHANNELS 3 Zrotation Yrotation Xrotation
									JOINT LeftHandPinky2
									{
										OFFSET 5.087853 -1.331142 -1.771231
										CHANNELS 3 Zrotation Yrotation Xrotation
										JOINT LeftHandPinky3
										{
											OFFSET 3.070976 0.000004 0.000001
											CHANNELS 3 Zrotation Yrotation Xrotation
											JOINT LeftHandPinky4
											{
												OFFSET 1.549668 -0.000001 0.000000
												CHANNELS 3 Zrotation Yrotation Xrotation
												JOINT LeftHandPinkyEnd
												{
													OFFSET 1.944894 -0.157802 0.057219
													CHANNELS 3 Zrotation Yrotation Xrotation
													End Site
													{
														OFFSET 0.000000 0.000000 0.000000
													}
												}
											}
										}
									}
								}
							}
						}
					}
				}
				JOINT RightShoulder
				{
					OFFSET -1.380118 23.180305 5.214158
					CHANNELS 3 Zrotation Yrotation Xrotation
					JOINT RightArm
					{
						OFFSET -15.037197 0.000012 -5.545603
						CHANNELS 3 Zrotation Yrotation Xrotation
						JOINT RightForeArm
						{
							OFFSET -28.736639 0.000003 -0.002597
							CHANNELS 3 Zrotation Yrotation Xrotation
							JOINT RightHand
							{
								OFFSET -27.133617 -0.000001 0.002613
								CHANNELS 3 Zrotation Yrotation Xrotation
								JOINT RightHandThumb1
								{
									OFFSET -2.274037 -1.383990 3.163126
									CHANNELS 3 Zrotation Yrotation Xrotation
									JOINT RightHandThumb2
									{
										OFFSET -4.011428 -1.827467 1.640914
										CHANNELS 3 Zrotation Yrotation Xrotation
										JOINT RightHandThumb3
										{
											OFFSET -2.794934 -0.000004 -0.000003
											CHANNELS 3 Zrotation Yrotation Xrotation
											JOINT RightHandThumbEnd
											{
												OFFSET -3.183856 0.000003 -0.000000
												CHANNELS 3 Zrotation Yrotation Xrotation
												End Site
												{
													OFFSET 0.000000 0.000000 0.000000
												}
											}
										}
									}
								}
								JOINT RightHandIndex1
								{
									OFFSET -3.253270 -0.520059 2.282866
									CHANNELS 3 Zrotation Yrotation Xrotation
									JOINT RightHandIndex2
									{
										OFFSET -6.341918 0.012472 0.178266
										CHANNELS 3 Zrotation Yrotation Xrotation
										JOINT RightHandIndex3
										{
											OFFSET -3.654875 -0.000008 -0.000001
											CHANNELS 3 Zrotation Yrotation Xrotation
											JOINT RightHandIndex4
											{
												OFFSET -2.327586 -0.000001 0.000000
												CHANNELS 3 Zrotation Yrotation Xrotation
												JOINT RightHandIndexEnd
												{
													OFFSET -2.761789 -0.180657 -0.113078
													CHANNELS 3 Zrotation Yrotation Xrotation
													End Site
													{
														OFFSET 0.000000 0.000000 0.000000
													}
												}
											}
										}
									}
								}
								JOINT RightHandMiddle1
								{
									OFFSET -3.168107 0.246594 1.001031
									CHANNELS 3 Zrotation Yrotation Xrotation
									JOINT RightHandMiddle2
									{
										OFFSET -6.180829 -0.258836 -1.000896
										CHANNELS 3 Zrotation Yrotation Xrotation
										JOINT RightHandMiddle3
										{
											OFFSET -4.348906 -0.000000 0.000000
											CHANNELS 3 Zrotation Yrotation Xrotation
											JOINT RightHandMiddle4
											{
												OFFSET -3.000242 -0.000004 -0.000003
												CHANNELS 3 Zrotation Yrotation Xrotation
												JOINT RightHandMiddleEnd
												{
													OFFSET -2.302518 -0.294370 -0.031705
													CHANNELS 3 Zrotation Yrotation Xrotation
													End Site
													{
														OFFSET 0.000000 0.000000 0.000000
													}
												}
											}
										}
									}
								}
								JOINT RightHandRing1
								{
									OFFSET -2.885694 -0.067952 -0.308859
									CHANNELS 3 Zrotation Yrotation Xrotation
									JOINT RightHandRing2
									{
										OFFSET -5.854198 -0.486132 -1.373732
										CHANNELS 3 Zrotation Yrotation Xrotation
										JOINT RightHandRing3
										{
											OFFSET -4.338814 -0.000004 -0.000001
											CHANNELS 3 Zrotation Yrotation Xrotation
											JOINT RightHandRing4
											{
												OFFSET -2.654905 -0.000005 0.000004
												CHANNELS 3 Zrotation Yrotation Xrotation
												JOINT RightHandRingEnd
												{
													OFFSET -1.933571 0.077524 -0.000053
													CHANNELS 3 Zrotation Yrotation Xrotation
													End Site
													{
														OFFSET 0.000000 0.000000 0.000000
													}
												}
											}
										}
									}
								}
								JOINT RightHandPinky1
								{
									OFFSET -2.866430 -0.342798 -1.584145
									CHANNELS 3 Zrotation Yrotation Xrotation
									JOINT RightHandPinky2
									{
										OFFSET -5.091370 -1.332054 -1.772386
										CHANNELS 3 Zrotation Yrotation Xrotation
										JOINT RightHandPinky3
										{
											OFFSET -3.062666 -0.000007 0.000001
											CHANNELS 3 Zrotation Yrotation Xrotation
											JOINT RightHandPinky4
											{
												OFFSET -1.546527 0.000005 -0.000002
												CHANNELS 3 Zrotation Yrotation Xrotation
												JOINT RightHandPinkyEnd
												{
													OFFSET -1.945122 -0.157721 0.057211
													CHANNELS 3 Zrotation Yrotation Xrotation
													End Site
													{
														OFFSET 0.000000 0.000000 0.000000
													}
												}
											}
										}
									}
								}
							}
						}
					}
				}
			}
		}
	}
	JOINT LeftLeg
	{
		OFFSET 10.043214 -8.434526 2.595655
		CHANNELS 3 Zrotation Yrotation Xrotation
		JOINT LeftShin
		{
			OFFSET -0.000001 -43.221752 -0.802913
			CHANNELS 3 Zrotation Yrotation Xrotation
			JOINT LeftFoot
			{
				OFFSET 0.000001 -42.155094 -3.481523
				CHANNELS 3 Zrotation Yrotation Xrotation
				JOINT LeftToeBase
				{
					OFFSET 0.000000 -5.059475 13.231529
					CHANNELS 3 Zrotation Yrotation Xrotation
					JOINT LeftToeEnd
					{
						OFFSET -0.009607 -1.647615 6.513018
						CHANNELS 3 Zrotation Yrotation Xrotation
						End Site
						{
							OFFSET 0.000000 0.000000 0.000000
						}
					}
				}
			}
		}
	}
	JOINT RightLeg
	{
		OFFSET -10.047277 -8.295259 2.620317
		CHANNELS 3 Zrotation Yrotation Xrotation
		JOINT RightShin
		{
			OFFSET 0.000001 -43.362209 -0.805555
			CHANNELS 3 Zrotation Yrotation Xrotation
			JOINT RightFoot
			{
				OFFSET 0.000002 -42.117393 -3.478399
				CHANNELS 3 Zrotation Yrotation Xrotation
				JOINT RightToeBase
				{
					OFFSET -0.000000 -5.079609 13.284196
					CHANNELS 3 Zrotation Yrotation Xrotation
					JOINT RightToeEnd
					{
						OFFSET 0.009532 -1.634383 6.460591
						CHANNELS 3 Zrotation Yrotation Xrotation
						End Site
						{
							OFFSET 0.000000 0.000000 0.000000
						}
					}
				}
			}
		}
	}
}
MOTION
Frames: 4
Frame Time: 0.033333
2.023509 95.053780 4.799011 0.753336 0.771873 3.422275 -1.599318 -0.116540 1.108325 -1.023516 -1.438640 -3.974211 -2.048785 -3.089529 9.309094 -6.218417 7.104540 9.101063 3.751987 14.107862 -3.031452 -2.214456 16.357334 -8.397936 0.000077 -0.000022 0.000006 -0.006432 -0.132716 -0.033490 0.715378 -3.876892 -10.746263 -0.740587 3.642617 -10.723924 2.928683 -7.855320 8.784058 -15.749593 -34.480331 -57.550201 178.421661 -48.662632 -179.249100 4.665951 1.443300 0.260801 -5.882099 9.861279 0.702590 -10.936859 -0.360576 7.156196 0.000000 8.774813 -0.000002 -16.426731 17.888523 5.998527 -1.844031 2.498503 -2.507276 -10.163589 4.678939 4.621104 -20.975994 -0.000002 0.000002 -21.226254 2.451695 -3.593993 0.000000 -0.000004 -0.000000 -1.362680 2.240797 -0.746322 -21.334892 0.584908 3.008320 -13.821197 -0.000002 0.000001 -23.887129 -0.249078 -0.839481 -60.530964 2.619440 -1.554371 -0.294024 1.679685 0.833253 -14.218195 0.093215 1.300580 -34.212002 -0.287563 0.967171 -20.033178 0.964535 1.212842 -0.000000 0.000001 -0.000000 -3.440384 0.788233 0.501657 -15.928167 -3.167306 2.999705 -6.338814 0.000000 0.000002 -18.123411 3.648178 -4.905661 -0.000003 -0.000001 -0.000003 2.360128 -3.219359 11.947708 75.042091 79.923553 34.953091 -177.687027 42.075642 -178.501190 -13.734996 -3.600799 -7.001825 2.243540 -5.255032 -3.180155 14.282877 -0.826596 6.952496 -0.000000 -12.690590 0.000000 15.503480 -17.867153 2.264823 1.665663 -1.955919 -2.878296 4.727795 -4.170584 4.993919 11.020515 0.000002 -0.000001 12.109035 -3.735710 -2.866780 0.000001 -0.000001 -0.000000 1.291984 -1.928548 -1.498088 14.800114 0.567466 3.865604 14.242554 -1.341734 -6.660648 19.631939 0.143925 -0.648244 49.668522 -0.820694 -6.459003 0.353029 -1.511149 -0.031939 20.222771 3.684304 2.316627 18.787247 0.000004 -0.000001 10.751611 -0.479869 1.397903 -0.000000 0.000001 -0.000000 3.273805 0.305947 -0.580110 21.486790 11.830360 2.266130 8.162918 -0.000001 -0.000000 18.399055 -3.798980 -4.940567 0.000003 -0.000002 -0.000001 12.946852 15.448444 -22.668320 -0.250572 -0.714505 28.889700 -15.314810 -0.811790 -4.279695 1.635602 -1.655724 0.510571 -0.000000 -0.000000 0.000002 -13.398952 1.022128 -8.751263 0.066021 0.745495 27.652521 15.219932 -4.068504 -19.777704 -1.463214 1.131565 -0.008351 0.000000 0.000000 -0.000001 
1.895884 95.070160 5.017833 0.994409 0.813353 4.148847 -1.979041 -0.173814 1.278576 -1.078402 -1.474051 -3.884739 -2.316101 -3.114039 9.407361 -5.509890 6.427769 7.831687 3.652520 13.772095 -3.025922 -1.683248 16.009970 -8.148849 0.000077 -0.000024 0.000006 0.002712 -0.131553 -0.039311 0.726554 -3.881233 -10.757573 -0.733644 3.640692 -10.734863 2.594242 -8.158689 8.515965 -13.082023 -34.325165 -58.230659 178.033173 -48.980114 -179.165115 4.982239 1.328314 1.986260 -5.882101 9.861278 0.702591 -10.936859 -0.360574 7.156197 -0.000001 8.774812 -0.000002 -16.530321 17.834532 5.912110 -1.844030 2.498502 -2.507275 -10.163592 4.678938 4.621105 -20.975998 -0.000003 0.000004 -21.226255 2.451692 -3.593991 0.000000 -0.000005 -0.000000 -1.362682 2.240797 -0.746321 -21.334890 0.584908 3.008321 -13.821195 -0.000002 0.000004 -23.887131 -0.249076 -0.839480 -60.278233 2.519007 -1.463925 -0.294025 1.679686 0.833255 -14.218195 0.093214 1.300579 -34.212006 -0.287562 0.967171 -20.033180 0.964537 1.212842 0.000000 0.000001 -0.000000 -3.440388 0.788232 0.501656 -15.928169 -3.167306 2.999704 -6.338815 -0.000001 0.000002 -18.123415 3.648176 -4.905662 -0.000004 0.000001 -0.000002 2.749501 -3.452784 12.212936 68.072639 78.706833 28.767143 -177.666809 41.391438 -178.342056 -13.273743 -2.851115 -6.806573 2.243540 -5.255032 -3.180156 14.282878 -0.826591 6.952495 -0.000001 -12.690587 -0.000001 15.568860 -17.982359 2.263510 1.665666 -1.955920 -2.878295 4.727793 -4.170583 4.993917 11.020512 0.000002 -0.000001 12.109030 -3.735709 -2.866779 -0.000000 0.000000 -0.000001 1.291984 -1.928547 -1.498089 14.800111 0.567468 3.865604 14.242553 -1.341736 -6.660650 19.631939 0.143925 -0.648243 49.740089 -0.859879 -6.570457 0.353029 -1.511149 -0.031941 20.222767 3.684308 2.316627 18.787245 0.000006 0.000000 10.751610 -0.479867 1.397903 -0.000000 -0.000001 0.000000 3.273804 0.305948 -0.580109 21.486788 11.830361 2.266131 8.162916 0.000001 0.000000 18.399054 -3.798980 -4.940567 0.000004 -0.000002 -0.000001 12.611891 15.587128 -23.208881 -0.255649 -0.628925 28.642015 -15.198036 -0.393710 -4.217801 1.621389 -1.597569 0.724876 -0.000000 -0.000000 0.000002 -13.602630 0.300580 -9.658160 0.068539 0.958567 28.294842 15.089483 -4.160821 -19.727901 -1.480505 1.203807 -0.527348 0.000000 -0.000000 -0.000001 
1.505100 95.023415 5.281919 1.342024 0.770235 4.938322 -2.494001 -0.280885 1.503229 -1.208299 -1.332853 -3.747758 -2.847679 -3.316644 9.529637 -4.282424 5.637912 6.509770 3.486809 13.163107 -3.086130 -0.882433 15.013774 -7.596194 0.000077 -0.000021 0.000007 0.016347 -0.142444 -0.051813 0.762171 -3.892303 -10.798625 -0.739257 3.615308 -10.783668 2.278040 -8.750030 8.016435 -10.172441 -34.148094 -58.519215 177.909485 -49.499889 -179.245911 4.959317 1.232560 4.979976 -5.882101 9.861278 0.702589 -10.936858 -0.360575 7.156196 0.000000 8.774812 0.000000 -16.492245 17.817987 5.860962 -1.844029 2.498503 -2.507277 -10.163589 4.678939 4.621103 -20.975996 -0.000003 0.000004 -21.226254 2.451692 -3.593992 0.000000 -0.000005 -0.000000 -1.362678 2.240796 -0.746323 -21.334887 0.584907 3.008318 -13.821197 -0.000001 0.000002 -23.887129 -0.249078 -0.839481 -60.084885 2.388572 -1.534637 -0.294025 1.679686 0.833255 -14.218194 0.093215 1.300579 -34.212006 -0.287563 0.967170 -20.033178 0.964535 1.212841 0.000000 -0.000001 0.000000 -3.440385 0.788232 0.501654 -15.928164 -3.167305 2.999701 -6.338817 -0.000001 0.000001 -18.123413 3.648176 -4.905661 -0.000004 0.000001 -0.000001 3.404170 -3.605574 12.255123 60.734161 76.025604 21.960768 -178.152161 40.952480 -178.633377 -13.256163 -2.080736 -7.128373 2.243538 -5.255032 -3.180156 14.282877 -0.826591 6.952497 -0.000003 -12.690588 0.000000 15.538432 -17.910261 2.310689 1.665666 -1.955920 -2.878298 4.727791 -4.170581 4.993919 11.020511 0.000005 -0.000001 12.109030 -3.735708 -2.866778 0.000001 -0.000000 -0.000000 1.291983 -1.928548 -1.498086 14.800111 0.567469 3.865603 14.242550 -1.341733 -6.660648 19.631939 0.143928 -0.648240 49.966393 -0.932332 -6.615098 0.353028 -1.511150 -0.031940 20.222769 3.684307 2.316630 18.787245 0.000008 0.000001 10.751610 -0.479867 1.397906 -0.000000 0.000001 0.000000 3.273806 0.305947 -0.580110 21.486790 11.830364 2.266134 8.162915 0.000002 0.000002 18.399048 -3.798978 -4.940563 0.000003 -0.000001 -0.000001 12.260784 16.191278 -23.569138 -0.271994 -0.624217 27.977468 -15.502058 0.063473 -4.114232 1.602116 -1.566877 0.953601 0.000000 0.000000 0.000002 -13.191113 -2.237740 -11.525706 0.146913 1.159196 30.715389 14.072554 -5.534915 -19.526247 -1.485256 1.264658 -0.998855 0.000000 0.000000 -0.000001 
0.853014 94.975510 5.257236 1.701384 0.294995 5.779906 -3.025337 -0.391770 1.723009 -1.407207 -1.244000 -3.652476 -3.564972 -3.409449 9.643687 -3.084158 4.950296 5.384522 3.361188 12.409217 -3.153285 0.242379 13.520677 -7.276195 0.000077 -0.000021 0.000006 0.011969 -0.097736 -0.070637 0.760602 -3.833760 -10.780354 -0.749960 3.645104 -10.785518 1.812512 -9.360928 7.676651 -7.258901 -34.361744 -58.658817 178.066360 -50.185753 -179.680405 4.435065 1.624026 8.322222 -5.882101 9.861279 0.702590 -10.936856 -0.360573 7.156197 -0.000001 8.774813 -0.000002 -16.539484 17.729364 5.661057 -1.844030 2.498503 -2.507275 -10.163588 4.678940 4.621103 -20.975992 -0.000001 0.000002 -21.226250 2.451696 -3.593995 0.000000 -0.000004 -0.000001 -1.362681 2.240796 -0.746324 -21.334887 0.584908 3.008318 -13.821194 -0.000000 0.000001 -23.887131 -0.249081 -0.839481 -59.733299 2.387154 -1.555690 -0.294024 1.679686 0.833256 -14.218194 0.093215 1.300580 -34.211998 -0.287563 0.967169 -20.033176 0.964535 1.212841 0.000000 0.000001 0.000000 -3.440385 0.788233 0.501656 -15.928165 -3.167306 2.999703 -6.338815 0.000000 0.000000 -18.123413 3.648176 -4.905663 -0.000004 -0.000001 -0.000002 4.328080 -3.685411 12.268468 56.265064 71.823547 17.793390 -178.795105 40.836216 -178.961929 -12.747348 -1.872051 -8.832636 2.243538 -5.255033 -3.180158 14.282877 -0.826592 6.952496 -0.000002 -12.690590 -0.000001 15.603173 -17.922789 2.243457 1.665664 -1.955920 -2.878298 4.727794 -4.170583 4.993918 11.020510 0.000004 -0.000001 12.109030 -3.735709 -2.866779 -0.000001 0.000000 0.000000 1.291983 -1.928547 -1.498088 14.800111 0.567469 3.865603 14.242551 -1.341735 -6.660650 19.631933 0.143928 -0.648245 50.230453 -0.918520 -6.605756 0.353028 -1.511149 -0.031939 20.222771 3.684306 2.316629 18.787245 0.000004 0.000001 10.751610 -0.479867 1.397904 -0.000000 0.000001 -0.000000 3.273805 0.305946 -0.580110 21.486788 11.830364 2.266130 8.162916 0.000001 0.000000 18.399052 -3.798979 -4.940567 0.000003 0.000001 0.000000 11.982092 17.203966 -23.791351 -0.291004 -0.660343 26.783670 -15.994958 0.694122 -3.664642 1.599028 -1.469227 1.098593 0.000000 0.000001 0.000002 -11.378683 -7.766397 -14.241725 0.193195 1.130246 35.005852 12.532811 -8.033546 -19.901648 -1.486927 1.287196 -0.933971 0.000000 0.000000 -0.000001 
